<?xml version="1.0" encoding="utf-8"?>
<!-- Generator: Adobe Illustrator 18.1.0, SVG Export Plug-In . SVG Version: 6.00 Build 0)  -->
<!DOCTYPE svg PUBLIC "-//W3C//DTD SVG 1.1//EN" "http://www.w3.org/Graphics/SVG/1.1/DTD/svg11.dtd">
<svg version="1.1" id="Icons" xmlns="http://www.w3.org/2000/svg" xmlns:xlink="http://www.w3.org/1999/xlink" x="0px" y="0px"
	 viewBox="5 62 642.4 400" enable-background="new 5 62 642.4 400" xml:space="preserve">
<path id="Behance" fill="#FFFFFF" d="M585.7,118.4H424.3v-40h161.4V118.4L585.7,118.4z M317.1,282.7c10.7,16.4,15.7,35.7,15.7,58.6
	c0,23.6-5.7,45-17.9,63.6c-7.9,12.1-17.1,22.9-28.6,31.4c-12.9,10-27.9,16.4-45,20c-17.1,3.6-36.4,5.7-56.4,5.7H5V62h192.9
	c48.6,0.7,83.6,15,103.6,42.9C313.6,122,320,142,320,166.3c0,24.3-6.4,44.3-18.6,58.6c-7.1,8.6-17.1,15.7-30.7,22.9
	C291.4,254.9,307.1,266.3,317.1,282.7z M97.1,219.9h85c17.1,0,31.4-3.6,42.1-10c10.7-6.4,16.4-18.6,16.4-35
	c0-18.6-7.1-30.7-21.4-37.1c-12.1-4.3-27.9-6.4-47.1-6.4h-75V219.9z M248.6,335.6c0-20.7-8.6-35-25.7-42.9c-9.3-4.3-22.9-6.4-40-6.4
	H97.1v106.4h84.3c17.1,0,30.7-2.1,40.7-7.1C240,377,248.6,359.9,248.6,335.6z M645,270.6c2.1,12.9,2.9,32.1,2.1,57.1H439.3
	c1.4,28.6,11.4,49.3,30,60.7c11.4,7.1,25,10.7,41.4,10.7c17.1,0,30.7-4.3,41.4-12.9c5.7-5,10.7-11.4,15.7-20h76.4
	c-2.1,17.1-11.4,34.3-27.9,51.4c-25.7,27.9-61.4,42.1-107.9,42.1c-37.9,0-71.4-12.1-100.7-35c-29.3-23.6-43.6-61.4-43.6-115
	c0-50,12.9-87.9,39.3-114.3s60.7-40,102.9-40c25,0,47.1,4.3,67.1,13.6c20,9.3,36.4,22.9,49.3,42.1
	C634.3,228.4,642.1,247.7,645,270.6z M570,277.7c-1.4-20-7.9-35-20-45c-12.1-10-26.4-15.7-44.3-15.7c-19.3,0-34.3,5.7-45,16.4
	c-10.7,10.7-17.1,25.7-20,44.3C440.7,277.7,570,277.7,570,277.7z"/>
</svg>
