<?xml version="1.0" encoding="utf-8"?>
<!-- Generator: Adobe Illustrator 18.1.1, SVG Export Plug-In . SVG Version: 6.00 Build 0)  -->
<!DOCTYPE svg PUBLIC "-//W3C//DTD SVG 1.1//EN" "http://www.w3.org/Graphics/SVG/1.1/DTD/svg11.dtd">
<svg version="1.1" id="Layer_1" xmlns="http://www.w3.org/2000/svg" xmlns:xlink="http://www.w3.org/1999/xlink" x="0px" y="0px"
	 viewBox="0 219.9 486 46.1" enable-background="new 0 219.9 486 46.1" xml:space="preserve">
<g>
	<g>
		<path fill="#FFFFFF" d="M70.1,221.8c-0.4-0.8-1.6-1.1-2-0.1l-17.2,41.7c-0.3,0.7,0.3,1.9,0.9,1.9h34.4c0.8,0,1.2-1.3,0.9-2
			L70.1,221.8z M54.4,262.6l14.8-35.4L84,262.6H54.4z"/>
		<path fill="#FFFFFF" d="M176.1,221.8c-0.4-0.8-1.6-1.1-2-0.1l-17.2,41.7c-0.3,0.7,0.3,1.9,0.9,1.9h34.6c0.8,0,1.2-1.3,0.9-2
			L176.1,221.8z M160.4,262.6l14.8-35.4l14.8,35.4H160.4z"/>
		<path fill="#FFFFFF" d="M328.6,263.2l-17.2-41.4c-0.4-0.8-1.6-0.9-2-0.1l-17.2,41.7c-0.3,0.7,0.3,1.9,0.9,1.9h34.4
			C328.3,265.3,328.8,263.9,328.6,263.2z M295.6,262.6l14.8-35.4l14.8,35.4H295.6z"/>
	</g>
	<path fill="#FFFFFF" d="M40.2,263.9c0,0.5-0.4,1.1-1.1,1.1H38c-0.5,0-0.9-0.4-0.9-1.1v-33.4l-16,35c-0.1,0.3-0.5,0.5-0.9,0.5
		s-0.8-0.1-0.9-0.5l-16-35v33.4c0,0.5-0.4,1.1-1.1,1.1H0.9c-0.5,0-0.9-0.4-0.9-1.1v-43.1c0-0.5,0.4-0.9,0.9-0.9
		c0.7,0,0.8,0.4,1.1,0.8l18,39l17.9-39c0.4-0.4,0.5-0.8,1.2-0.8c0.5,0,1.1,0.4,1.1,0.9V263.9z"/>
	<path fill="#FFFFFF" d="M120.6,263.2c0.7,0.7,0,1.6-0.8,1.6h-1.5c-0.4,0-0.7-0.1-0.8-0.4l-16.3-17.6c-0.5-0.7,0-1.7,0.8-1.7
		c7.8,0,14.1-3.4,14.1-10.9c0-8.5-6.6-10-12.2-10h-3v39.7c0,0.5-0.4,1.1-1.1,1.1h-1.1c-0.5,0-1.1-0.4-1.1-1.1v-41.8
		c0-0.5,0.4-0.9,1.1-0.9h5.1c8.7,0,15.3,3.5,15.3,13.1c0,7.3-4.4,12.4-12.8,13.7L120.6,263.2L120.6,263.2z"/>
	<path fill="#FFFFFF" d="M153.8,221c0.5,0,1.1,0.4,1.1,0.9v1.1c0,0.5-0.4,0.9-1.1,0.9h-9.7v39.7c0,0.5-0.4,1.1-0.9,1.1h-1.1
		c-0.5,0-0.9-0.4-0.9-1.1V224h-9.7c-0.5,0-1.1-0.4-1.1-0.9V222c0-0.5,0.4-0.9,1.1-0.9h22.3L153.8,221L153.8,221z"/>
	<path fill="#FFFFFF" d="M405,241.3c0.4,0,0.8,0.4,0.8,0.9v1.1c0,0.5-0.4,0.9-0.8,0.9h-17.8c-0.4,0-0.8-0.4-0.8-0.9v-1.1
		c0-0.5,0.4-0.9,0.8-0.9H405z"/>
	<path fill="#FFFFFF" d="M244.7,221c0.5,0,1.1,0.4,1.1,0.9v1.1c0,0.5-0.4,0.9-1.1,0.9H235v39.7c0,0.5-0.4,1.1-0.9,1.1H233
		c-0.5,0-0.9-0.4-0.9-1.1V224h-9.7c-0.5,0-1.1-0.4-1.1-0.9V222c0-0.5,0.4-0.9,1.1-0.9h22.3L244.7,221L244.7,221z"/>
	<path fill="#FFFFFF" d="M283.1,263.2c0.7,0.7,0,1.6-0.8,1.6h-1.5c-0.4,0-0.7-0.1-0.8-0.4l-16.1-17.8c-0.5-0.7,0-1.7,0.8-1.7
		c7.8,0,14-3.4,14-10.9c0-8.5-6.6-10-12.2-10h-3v39.7c0,0.5-0.4,1.1-1.1,1.1h-1.1c-0.5,0-1.1-0.4-1.1-1.1V222c0-0.5,0.4-0.9,1.1-0.9
		h5.1c8.7,0,15.3,3.5,15.3,13.1c0,7.3-4.4,12.4-12.8,13.7L283.1,263.2L283.1,263.2z"/>
	<path fill="#FFFFFF" d="M369.7,260c0.3,0.4,0.4,0.9-0.3,1.5c-3.6,2.6-8.1,4-12.8,4c-12.4,0-22.5-10.1-22.5-22.6
		c0-12.4,10.1-22.5,22.5-22.5c4.7,0,9.1,1.5,12.8,3.9l0.1,0.1c0.7,0.5,0.4,1.1,0.1,1.3l-0.7,0.9c-0.5,0.7-1.2,0.3-1.3,0.1
		c-3.1-2.2-6.6-3.5-11-3.5c-9,0-19.4,7.3-19.4,19.4c0,12.4,10.6,19.5,19.4,19.5c4.4,0,8.3-1.6,10.9-3.4c0.5-0.3,1.1-0.4,1.5,0.1
		L369.7,260z"/>
	<path fill="#FFFFFF" d="M407,261.8c0.5,0,1.1,0.4,1.1,1.1v1.1c0,0.5-0.4,1.1-1.1,1.1h-21.9c-0.8,0-1.3-0.7-0.8-1.6l18.7-39.2h-17.6
		c-0.5,0-0.9-0.4-0.9-0.9v-1.3c0-0.5,0.4-0.9,0.9-0.9h21c0.5,0,1.3,0.7,0.9,1.5l-18.8,39.2H407V261.8z"/>
	<path fill="#FFFFFF" d="M435.8,243.2v20.7c0,0.5-0.4,1.1-1.1,1.1h-1.1c-0.5,0-1.1-0.4-1.1-1.1v-20.7l-11.7-20.6
		c-0.5-0.9,0.1-1.6,0.8-1.6h1.2c0.4,0,0.7,0.1,0.9,0.5l10.5,18l10.5-18c0.1-0.3,0.5-0.5,0.9-0.5h1.2c0.7,0,1.3,0.7,0.8,1.6
		L435.8,243.2z"/>
	<path fill="#FFFFFF" d="M485.7,263.8c0.4,0.4,0.3,1.1,0,1.3c-0.1,0.1-0.4,0.3-0.8,0.3h-1.6c-0.1,0-0.4,0-0.7-0.3l-19.5-17v16.3
		c0,0.5-0.4,1.1-1.1,1.1h-1c-0.5,0-1.1-0.4-1.1-1.1v-41.8c0-0.5,0.4-0.9,1.1-0.9h1.1c0.5,0,1.1,0.4,1.1,0.9v24.2L482,222
		c0.1-0.3,0.4-0.4,0.8-0.4h1.3c0.5,0,1.1,0.4,1.1,0.9c0,0.1,0,0.4-0.3,0.8l-18,23.8L485.7,263.8L485.7,263.8z"/>
</g>
</svg>
