<?xml version="1.0" encoding="utf-8"?>
<!-- Generator: Adobe Illustrator 18.1.1, SVG Export Plug-In . SVG Version: 6.00 Build 0)  -->
<!DOCTYPE svg PUBLIC "-//W3C//DTD SVG 1.1//EN" "http://www.w3.org/Graphics/SVG/1.1/DTD/svg11.dtd">
<svg version="1.1" id="Layer_1" xmlns="http://www.w3.org/2000/svg" xmlns:xlink="http://www.w3.org/1999/xlink" x="0px" y="0px"
	 viewBox="0 0 361.2 34.3" style="enable-background:new 0 0 361.2 34.3;" xml:space="preserve">
<style type="text/css">
	.st0{fill:#3CDBC0;}
</style>
<g>
	<g>
		<path class="st0" d="M52.1,1.4c-0.3-0.6-1.2-0.8-1.5-0.1l-12.8,31c-0.2,0.5,0.2,1.4,0.7,1.4h25.6c0.6,0,0.9-1,0.7-1.5L52.1,1.4z
			 M40.4,31.7l11-26.3l11,26.3H40.4z"/>
		<path class="st0" d="M130.9,1.4c-0.3-0.6-1.2-0.8-1.5-0.1l-12.8,31c-0.2,0.5,0.2,1.4,0.7,1.4H143c0.6,0,0.9-1,0.7-1.5L130.9,1.4z
			 M119.2,31.7l11-26.3l11,26.3H119.2z"/>
		<path class="st0" d="M244.2,32.2L231.4,1.4c-0.3-0.6-1.2-0.7-1.5-0.1l-12.8,31c-0.2,0.5,0.2,1.4,0.7,1.4h25.6
			C244,33.7,244.4,32.7,244.2,32.2z M219.7,31.7l11-26.3l11,26.3H219.7z"/>
	</g>
	<path class="st0" d="M29.9,32.7c0,0.4-0.3,0.8-0.8,0.8h-0.8c-0.4,0-0.7-0.3-0.7-0.8V7.9l-11.9,26c-0.1,0.2-0.4,0.4-0.7,0.4
		c-0.3,0-0.6-0.1-0.7-0.4L2.4,7.9v24.8c0,0.4-0.3,0.8-0.8,0.8H0.7c-0.4,0-0.7-0.3-0.7-0.8V0.7C0,0.3,0.3,0,0.7,0
		c0.5,0,0.6,0.3,0.8,0.6l13.4,29l13.3-29C28.5,0.3,28.6,0,29.1,0c0.4,0,0.8,0.3,0.8,0.7V32.7z"/>
	<path class="st0" d="M89.6,32.2c0.5,0.5,0,1.2-0.6,1.2h-1.1c-0.3,0-0.5-0.1-0.6-0.3L75.2,20c-0.4-0.5,0-1.3,0.6-1.3
		c5.8,0,10.5-2.5,10.5-8.1c0-6.3-4.9-7.4-9.1-7.4H75v29.5c0,0.4-0.3,0.8-0.8,0.8h-0.8c-0.4,0-0.8-0.3-0.8-0.8V1.6
		c0-0.4,0.3-0.7,0.8-0.7h3.8c6.5,0,11.4,2.6,11.4,9.7c0,5.4-3.3,9.2-9.5,10.2L89.6,32.2L89.6,32.2z"/>
	<path class="st0" d="M114.3,0.8c0.4,0,0.8,0.3,0.8,0.7v0.8c0,0.4-0.3,0.7-0.8,0.7h-7.2v29.5c0,0.4-0.3,0.8-0.7,0.8h-0.8
		c-0.4,0-0.7-0.3-0.7-0.8V3.1h-7.2c-0.4,0-0.8-0.3-0.8-0.7V1.6c0-0.4,0.3-0.7,0.8-0.7H114.3z"/>
	<path class="st0" d="M301,15.9c0.3,0,0.6,0.3,0.6,0.7v0.8c0,0.4-0.3,0.7-0.6,0.7h-13.2c-0.3,0-0.6-0.3-0.6-0.7v-0.8
		c0-0.4,0.3-0.7,0.6-0.7H301z"/>
	<path class="st0" d="M181.9,0.8c0.4,0,0.8,0.3,0.8,0.7v0.8c0,0.4-0.3,0.7-0.8,0.7h-7.2v29.5c0,0.4-0.3,0.8-0.7,0.8h-0.8
		c-0.4,0-0.7-0.3-0.7-0.8V3.1h-7.2c-0.4,0-0.8-0.3-0.8-0.7V1.6c0-0.4,0.3-0.7,0.8-0.7H181.9z"/>
	<path class="st0" d="M210.4,32.2c0.5,0.5,0,1.2-0.6,1.2h-1.1c-0.3,0-0.5-0.1-0.6-0.3l-12-13.2c-0.4-0.5,0-1.3,0.6-1.3
		c5.8,0,10.4-2.5,10.4-8.1c0-6.3-4.9-7.4-9.1-7.4h-2.2v29.5c0,0.4-0.3,0.8-0.8,0.8h-0.8c-0.4,0-0.8-0.3-0.8-0.8V1.6
		c0-0.4,0.3-0.7,0.8-0.7h3.8c6.5,0,11.4,2.6,11.4,9.7c0,5.4-3.3,9.2-9.5,10.2L210.4,32.2L210.4,32.2z"/>
	<path class="st0" d="M274.8,29.8c0.2,0.3,0.3,0.7-0.2,1.1c-2.7,1.9-6,3-9.5,3c-9.2,0-16.7-7.5-16.7-16.8c0-9.2,7.5-16.7,16.7-16.7
		c3.5,0,6.8,1.1,9.5,2.9l0.1,0.1c0.5,0.4,0.3,0.8,0.1,1l-0.5,0.7c-0.4,0.5-0.9,0.2-1,0.1c-2.3-1.6-4.9-2.6-8.2-2.6
		c-6.7,0-14.4,5.4-14.4,14.4c0,9.2,7.9,14.5,14.4,14.5c3.3,0,6.2-1.2,8.1-2.5c0.4-0.2,0.8-0.3,1.1,0.1L274.8,29.8z"/>
	<path class="st0" d="M302.5,31.1c0.4,0,0.8,0.3,0.8,0.8v0.8c0,0.4-0.3,0.8-0.8,0.8h-16.3c-0.6,0-1-0.5-0.6-1.2l13.9-29.1h-13.1
		c-0.4,0-0.7-0.3-0.7-0.7V1.5c0-0.4,0.3-0.7,0.7-0.7H302c0.4,0,1,0.5,0.7,1.1l-14,29.1H302.5z"/>
	<path class="st0" d="M323.9,17.3v15.4c0,0.4-0.3,0.8-0.8,0.8h-0.8c-0.4,0-0.8-0.3-0.8-0.8V17.3L312.8,2c-0.4-0.7,0.1-1.2,0.6-1.2
		h0.9c0.3,0,0.5,0.1,0.7,0.4l7.8,13.4l7.8-13.4c0.1-0.2,0.4-0.4,0.7-0.4h0.9c0.5,0,1,0.5,0.6,1.2L323.9,17.3z"/>
	<path class="st0" d="M361,32.6c0.3,0.3,0.2,0.8,0,1c-0.1,0.1-0.3,0.2-0.6,0.2h-1.2c-0.1,0-0.3,0-0.5-0.2L344.2,21v12.1
		c0,0.4-0.3,0.8-0.8,0.8h-0.8c-0.4,0-0.8-0.3-0.8-0.8V2c0-0.4,0.3-0.7,0.8-0.7h0.8c0.4,0,0.8,0.3,0.8,0.7v18l14-18.4
		c0.1-0.2,0.3-0.3,0.6-0.3h1c0.4,0,0.8,0.3,0.8,0.7c0,0.1,0,0.3-0.2,0.6l-13.4,17.7L361,32.6L361,32.6z"/>
</g>
<g>
</g>
<g>
</g>
<g>
</g>
<g>
</g>
<g>
</g>
<g>
</g>
<g>
</g>
<g>
</g>
<g>
</g>
<g>
</g>
<g>
</g>
<g>
</g>
<g>
</g>
<g>
</g>
<g>
</g>
</svg>
