<?xml version="1.0" encoding="utf-8"?>
<!-- Generator: Adobe Illustrator 18.1.0, SVG Export Plug-In . SVG Version: 6.00 Build 0)  -->
<!DOCTYPE svg PUBLIC "-//W3C//DTD SVG 1.1//EN" "http://www.w3.org/Graphics/SVG/1.1/DTD/svg11.dtd">
<svg version="1.1" xmlns="http://www.w3.org/2000/svg" xmlns:xlink="http://www.w3.org/1999/xlink" x="0px" y="0px"
	 viewBox="0 0 242.6 197.2" style="enable-background:new 0 0 242.6 197.2;" xml:space="preserve">
<style type="text/css">
	.st0{fill:#FFFFFF;}
</style>
<g id="Layer_1">
</g>
<g id="Layer_2">
	<path class="st0" d="M242.6,23.3c-8.9,4-18.5,6.6-28.6,7.8c10.3-6.2,18.2-15.9,21.9-27.5c-9.6,5.7-20.3,9.8-31.6,12.1
		C195.2,6,182.3,0,168,0c-27.5,0-49.8,22.3-49.8,49.8c0,3.9,0.4,7.7,1.3,11.3c-41.4-2.1-78-21.9-102.6-52c-4.3,7.4-6.7,15.9-6.7,25
		c0,17.3,8.8,32.5,22.1,41.4c-8.2-0.3-15.8-2.5-22.5-6.2c0,0.2,0,0.4,0,0.6c0,24.1,17.2,44.2,39.9,48.8c-4.2,1.1-8.6,1.7-13.1,1.7
		c-3.2,0-6.3-0.3-9.4-0.9c6.3,19.8,24.7,34.2,46.5,34.6c-17,13.4-38.5,21.3-61.8,21.3c-4,0-8-0.2-11.9-0.7
		c22,14.1,48.2,22.4,76.3,22.4c91.6,0,141.6-75.8,141.6-141.6c0-2.2,0-4.3-0.1-6.4C227.5,42.1,236,33.3,242.6,23.3z"/>
	<g>
	</g>
	<g>
	</g>
	<g>
	</g>
	<g>
	</g>
	<g>
	</g>
	<g>
	</g>
</g>
</svg>
